<svg width="152" height="89" viewBox="0 0 152 89" fill="none" xmlns="http://www.w3.org/2000/svg">
<path d="M57.9039 1C57.9039 1 61.699 2.69423 64.5 5.5C67.301 8.30577 68.6206 9.73717 71.0631 11.6198C73.2619 13.3033 76.7071 12.7422 79.4801 12.8095C82.5332 12.8909 84.2754 12.5542 86.0905 11.8583C87.7459 11.2214 87.5106 9.57163 90.9923 6.47126C94.2835 3.54203 98.0844 1.31425 98.2945 1.85015C98.373 2.05052 101.027 4.01025 102.757 7.30457C105.653 12.8212 108.263 21.3057 108.717 25.8732C109.171 30.4494 109.879 39.2763 103.622 44.5456C97.3645 49.8148 90.0119 50 80.7154 50C73.0154 50 66.1893 49.3435 61.0719 48.2969C56.9768 47.4552 53.4307 44.4165 52.1731 43.2297C51.851 42.9266 46.5963 37.5648 47.0248 26.6756C47.2761 20.2914 50.0704 12.5868 53.0386 7.30457C55.1332 3.57727 57.7387 1.05612 57.7387 1.05612" fill="white"/>
<path d="M57.9039 1C57.9039 1 61.699 2.69423 64.5 5.5C67.301 8.30577 68.6206 9.73717 71.0631 11.6198C73.2619 13.3033 76.7071 12.7422 79.4801 12.8095C82.5332 12.8909 84.2754 12.5542 86.0905 11.8583C87.7459 11.2214 87.5106 9.57163 90.9923 6.47126C94.2835 3.54203 98.0844 1.31425 98.2945 1.85015C98.373 2.05052 101.027 4.01025 102.757 7.30457C105.653 12.8212 108.263 21.3057 108.717 25.8732C109.171 30.4494 109.879 39.2763 103.622 44.5456C97.3645 49.8148 90.0119 50 80.7154 50C73.0154 50 66.1893 49.3435 61.0719 48.2969C56.9768 47.4552 53.4307 44.4165 52.1731 43.2297C51.851 42.9266 46.5963 37.5648 47.0248 26.6756C47.2761 20.2914 50.0704 12.5868 53.0386 7.30457C55.1332 3.57727 57.7387 1.05612 57.7387 1.05612" stroke="#B94362" stroke-width="2" stroke-linecap="round" stroke-linejoin="round"/>
<path d="M42 34.0002C42 34.0002 50.4033 33.9336 54 36" stroke="#A33950" stroke-linecap="round" stroke-linejoin="round"/>
<path d="M43 42C43 42 50.7936 40.6045 55 41.1106" stroke="#A33950" stroke-linecap="round" stroke-linejoin="round"/>
<path d="M48 49C48 49 54.7317 44.9666 59 45.0002" stroke="#A33950" stroke-linecap="round" stroke-linejoin="round"/>
<path d="M116 33C116 33 106.757 33.2381 103 35" stroke="#A33950" stroke-linecap="round" stroke-linejoin="round"/>
<path d="M116 41C116 41 107.527 38.2346 103 39.2074" stroke="#A33950" stroke-linecap="round" stroke-linejoin="round"/>
<path d="M110 48C110 48 102.721 44.1435 98 44" stroke="#A33950" stroke-linecap="round" stroke-linejoin="round"/>
<path opacity="0.26" d="M63.5 42C66.5376 42 69 40.433 69 38.5C69 36.567 66.5376 35 63.5 35C60.4624 35 58 36.567 58 38.5C58 40.433 60.4624 42 63.5 42Z" fill="#FAA6CA"/>
<path opacity="0.26" d="M92.5 42C95.5376 42 98 40.433 98 38.5C98 36.567 95.5376 35 92.5 35C89.4624 35 87 36.567 87 38.5C87 40.433 89.4624 42 92.5 42Z" fill="#FAA6CA"/>
<path d="M89 36.15C90.2169 36.15 91.15 34.9306 91.15 33.5C91.15 32.0694 90.2169 30.85 89 30.85C87.7831 30.85 86.85 32.0694 86.85 33.5C86.85 34.9306 87.7831 36.15 89 36.15Z" fill="#B94362" stroke="white" stroke-width="0.3"/>
<path d="M67 36.15C68.2169 36.15 69.15 34.9306 69.15 33.5C69.15 32.0694 68.2169 30.85 67 30.85C65.7831 30.85 64.85 32.0694 64.85 33.5C64.85 34.9306 65.7831 36.15 67 36.15Z" fill="#B94362" stroke="white" stroke-width="0.3"/>
<path d="M78 40C79.1046 40 80 39.3284 80 38.5C80 37.6716 79.1046 37 78 37C76.8954 37 76 37.6716 76 38.5C76 39.3284 76.8954 40 78 40Z" fill="#FFFCD0" stroke="#B94362" stroke-width="0.5" stroke-linecap="round" stroke-linejoin="round"/>
<path d="M81 42.0948C79.7556 43.3793 76.0074 43.2509 75 42" stroke="#B94362" stroke-width="0.5" stroke-linecap="round" stroke-linejoin="round"/>
<path d="M90.953 15.3896C90.953 15.3896 89.5089 17.0549 85.4972 16.9986C83.0531 16.9611 80.7208 15.8187 80.0444 15.041C79.3679 14.2633 78.6473 12.5363 79.1914 10.2863C79.7355 8.03639 80.9561 4.3303 84.9678 4.01386C89.3177 3.6706 93 9.81704 93 9.81704L90.953 15.3896Z" fill="#FAA7CB" stroke="#B94362" stroke-width="1.25" stroke-linecap="round" stroke-linejoin="round"/>
<path d="M95.0001 17.3815C95.0001 17.3815 94.9459 19.5532 97.8171 22.0281C99.5632 23.5352 101.944 24.1358 102.92 23.9746C103.896 23.8133 105.517 22.954 106.583 20.9158C107.648 18.8775 109.172 15.2876 106.542 12.5207C103.695 9.52589 97.142 11.8784 97.142 11.8784L95.0001 17.3815Z" fill="#FAA7CB" stroke="#B94362" stroke-width="1.25" stroke-linecap="round" stroke-linejoin="round"/>
<path d="M96.7845 15.263C96.0917 17.4234 93.9836 18.4296 92.2977 17.8282C90.6117 17.2268 89.5184 15.0037 90.2112 12.8461C90.904 10.6885 93.05 9.56268 94.7359 10.1584C96.4218 10.754 97.4772 13.1026 96.7845 15.263Z" fill="#FAA7CB" stroke="#B94362" stroke-width="1.25" stroke-linecap="round" stroke-linejoin="round"/>
<path d="M97.4277 15.3358L101 17C100.765 16.5021 100.449 16.0763 100.074 15.7525C99.6984 15.4286 99.2729 15.2145 98.8269 15.1249C97.6329 14.8438 97 15.1249 97 15.1249L97.4277 15.3358Z" fill="#B94569"/>
<path d="M89.4548 12.8609L85 11.2405C85 11.2405 86.3391 10.5562 88.1396 11.4961C89.4967 12.2067 90 13 90 13L89.4548 12.8609Z" fill="#B94569"/>
<path d="M44.944 54.6L40.56 63.016L36.176 54.6H29.968L37.808 67.912V77H43.312V67.88L51.152 54.6H44.944ZM50.1455 72.68H61.9855L61.6335 68.552H50.5295L50.1455 72.68ZM56.0015 62.824L59.1695 70.088L58.9775 71.464L61.6655 77H67.8095L56.0015 53.192L44.2255 77H50.3375L53.1215 71.24L52.8655 70.056L56.0015 62.824ZM72.2367 65.576L78.3488 74.92L84.4928 65.576L85.8368 77H91.5328L87.9167 53.48L78.3488 67.144L68.8127 53.48L65.1967 77H70.8927L72.2367 65.576ZM94.8167 72.68H106.657L106.305 68.552H95.2007L94.8167 72.68ZM100.673 62.824L103.841 70.088L103.649 71.464L106.337 77H112.481L100.673 53.192L88.8967 77H95.0087L97.7927 71.24L97.5367 70.056L100.673 62.824ZM113.612 69.128L109.836 71.848C110.348 72.9147 111.063 73.896 111.98 74.792C112.897 75.688 113.975 76.4027 115.212 76.936C116.471 77.448 117.825 77.704 119.276 77.704C120.321 77.704 121.335 77.544 122.316 77.224C123.319 76.9253 124.204 76.4773 124.972 75.88C125.761 75.2827 126.38 74.5467 126.828 73.672C127.297 72.776 127.532 71.7627 127.532 70.632C127.532 69.6933 127.383 68.8613 127.084 68.136C126.785 67.4107 126.369 66.7707 125.836 66.216C125.324 65.6613 124.727 65.192 124.044 64.808C123.361 64.4027 122.625 64.0507 121.836 63.752C120.791 63.3893 119.895 63.048 119.148 62.728C118.423 62.408 117.857 62.056 117.452 61.672C117.068 61.288 116.876 60.84 116.876 60.328C116.876 59.8373 117.079 59.432 117.484 59.112C117.889 58.7707 118.476 58.6 119.244 58.6C119.82 58.6 120.353 58.7173 120.844 58.952C121.356 59.1653 121.815 59.4747 122.22 59.88C122.647 60.264 123.02 60.7227 123.34 61.256L127.468 58.952C127.084 58.184 126.529 57.4267 125.804 56.68C125.079 55.9333 124.161 55.3147 123.052 54.824C121.964 54.3333 120.673 54.088 119.18 54.088C117.729 54.088 116.407 54.344 115.212 54.856C114.039 55.3467 113.1 56.072 112.396 57.032C111.713 57.992 111.372 59.1333 111.372 60.456C111.372 61.5653 111.575 62.5147 111.98 63.304C112.385 64.072 112.897 64.7333 113.516 65.288C114.135 65.8213 114.785 66.2587 115.468 66.6C116.172 66.9413 116.791 67.208 117.324 67.4C118.412 67.8053 119.287 68.168 119.948 68.488C120.609 68.808 121.089 69.1493 121.388 69.512C121.687 69.8533 121.836 70.312 121.836 70.888C121.836 71.5707 121.58 72.1147 121.068 72.52C120.556 72.904 119.905 73.096 119.116 73.096C118.369 73.096 117.655 72.936 116.972 72.616C116.311 72.296 115.692 71.8373 115.116 71.24C114.561 70.6427 114.06 69.9387 113.612 69.128Z" fill="#DB3172"/>
<g filter="url(#filter0_d_81_5)">
<path d="M20.0543 46.4621L25.1587 46.1275L21.6676 49.8663L21.935 55.1588L18.3911 51.419L12.9037 51.9351L16.7778 48.0149L16.1274 42.9038L20.0543 46.4621Z" fill="#DB3172"/>
</g>
<g filter="url(#filter1_d_81_5)">
<path d="M132.268 46.3415L133.776 51.2297L129.33 48.6992L124.244 50.185L127.061 45.8713L125.288 40.6527L129.999 43.5136L134.821 41.6973L132.268 46.3415Z" fill="#DB3172"/>
</g>
<g filter="url(#filter2_d_81_5)">
<path d="M28.0692 39.3746L31.2746 39.3994L28.9214 41.576L28.8459 44.896L26.8025 42.3962L23.3493 42.4673L25.9503 40.1948L25.7781 36.9707L28.0692 39.3746Z" fill="#DB3172"/>
</g>
<g filter="url(#filter3_d_81_5)">
<path d="M141.019 52.4972L141.738 55.6213L139.075 53.836L135.828 54.5314L137.787 51.9646L136.918 48.6218L139.731 50.6258L142.827 49.7117L141.019 52.4972Z" fill="#DB3172"/>
</g>
<g filter="url(#filter4_d_81_5)">
<path d="M14.4129 37.0206L17.1291 38.723L13.9839 39.3419L12.1784 42.1291L11.7496 38.929L8.77227 37.1784L12.1786 36.6077L13.723 33.7723L14.4129 37.0206Z" fill="#DB3172"/>
</g>
<g filter="url(#filter5_d_81_5)">
<path d="M140.147 38.6671L139.12 41.7036L137.789 38.7872L134.66 37.6762L137.673 36.518L138.687 33.2163L140.031 36.3979L143.147 37.2436L140.147 38.6671Z" fill="#DB3172"/>
</g>
<defs>
<filter id="filter0_d_81_5" x="4.90381" y="34.9038" width="28.2549" height="28.255" filterUnits="userSpaceOnUse" color-interpolation-filters="sRGB">
<feFlood flood-opacity="0" result="BackgroundImageFix"/>
<feColorMatrix in="SourceAlpha" type="matrix" values="0 0 0 0 0 0 0 0 0 0 0 0 0 0 0 0 0 0 127 0" result="hardAlpha"/>
<feOffset/>
<feGaussianBlur stdDeviation="4"/>
<feComposite in2="hardAlpha" operator="out"/>
<feColorMatrix type="matrix" values="0 0 0 0 0.858824 0 0 0 0 0.192157 0 0 0 0 0.447059 0 0 0 1 0"/>
<feBlend mode="normal" in2="BackgroundImageFix" result="effect1_dropShadow_81_5"/>
<feBlend mode="normal" in="SourceGraphic" in2="effect1_dropShadow_81_5" result="shape"/>
</filter>
<filter id="filter1_d_81_5" x="116.244" y="32.6527" width="26.5769" height="26.5769" filterUnits="userSpaceOnUse" color-interpolation-filters="sRGB">
<feFlood flood-opacity="0" result="BackgroundImageFix"/>
<feColorMatrix in="SourceAlpha" type="matrix" values="0 0 0 0 0 0 0 0 0 0 0 0 0 0 0 0 0 0 127 0" result="hardAlpha"/>
<feOffset/>
<feGaussianBlur stdDeviation="4"/>
<feComposite in2="hardAlpha" operator="out"/>
<feColorMatrix type="matrix" values="0 0 0 0 0.858824 0 0 0 0 0.192157 0 0 0 0 0.447059 0 0 0 1 0"/>
<feBlend mode="normal" in2="BackgroundImageFix" result="effect1_dropShadow_81_5"/>
<feBlend mode="normal" in="SourceGraphic" in2="effect1_dropShadow_81_5" result="shape"/>
</filter>
<filter id="filter2_d_81_5" x="15.3494" y="28.9707" width="23.9253" height="23.9253" filterUnits="userSpaceOnUse" color-interpolation-filters="sRGB">
<feFlood flood-opacity="0" result="BackgroundImageFix"/>
<feColorMatrix in="SourceAlpha" type="matrix" values="0 0 0 0 0 0 0 0 0 0 0 0 0 0 0 0 0 0 127 0" result="hardAlpha"/>
<feOffset/>
<feGaussianBlur stdDeviation="4"/>
<feComposite in2="hardAlpha" operator="out"/>
<feColorMatrix type="matrix" values="0 0 0 0 0.858824 0 0 0 0 0.192157 0 0 0 0 0.447059 0 0 0 1 0"/>
<feBlend mode="normal" in2="BackgroundImageFix" result="effect1_dropShadow_81_5"/>
<feBlend mode="normal" in="SourceGraphic" in2="effect1_dropShadow_81_5" result="shape"/>
</filter>
<filter id="filter3_d_81_5" x="127.828" y="40.6218" width="22.9995" height="22.9994" filterUnits="userSpaceOnUse" color-interpolation-filters="sRGB">
<feFlood flood-opacity="0" result="BackgroundImageFix"/>
<feColorMatrix in="SourceAlpha" type="matrix" values="0 0 0 0 0 0 0 0 0 0 0 0 0 0 0 0 0 0 127 0" result="hardAlpha"/>
<feOffset/>
<feGaussianBlur stdDeviation="4"/>
<feComposite in2="hardAlpha" operator="out"/>
<feColorMatrix type="matrix" values="0 0 0 0 0.858824 0 0 0 0 0.192157 0 0 0 0 0.447059 0 0 0 1 0"/>
<feBlend mode="normal" in2="BackgroundImageFix" result="effect1_dropShadow_81_5"/>
<feBlend mode="normal" in="SourceGraphic" in2="effect1_dropShadow_81_5" result="shape"/>
</filter>
<filter id="filter4_d_81_5" x="0.772217" y="25.7722" width="24.3569" height="24.3568" filterUnits="userSpaceOnUse" color-interpolation-filters="sRGB">
<feFlood flood-opacity="0" result="BackgroundImageFix"/>
<feColorMatrix in="SourceAlpha" type="matrix" values="0 0 0 0 0 0 0 0 0 0 0 0 0 0 0 0 0 0 127 0" result="hardAlpha"/>
<feOffset/>
<feGaussianBlur stdDeviation="4"/>
<feComposite in2="hardAlpha" operator="out"/>
<feColorMatrix type="matrix" values="0 0 0 0 0.858824 0 0 0 0 0.192157 0 0 0 0 0.447059 0 0 0 1 0"/>
<feBlend mode="normal" in2="BackgroundImageFix" result="effect1_dropShadow_81_5"/>
<feBlend mode="normal" in="SourceGraphic" in2="effect1_dropShadow_81_5" result="shape"/>
</filter>
<filter id="filter5_d_81_5" x="126.66" y="25.2163" width="24.4873" height="24.4873" filterUnits="userSpaceOnUse" color-interpolation-filters="sRGB">
<feFlood flood-opacity="0" result="BackgroundImageFix"/>
<feColorMatrix in="SourceAlpha" type="matrix" values="0 0 0 0 0 0 0 0 0 0 0 0 0 0 0 0 0 0 127 0" result="hardAlpha"/>
<feOffset/>
<feGaussianBlur stdDeviation="4"/>
<feComposite in2="hardAlpha" operator="out"/>
<feColorMatrix type="matrix" values="0 0 0 0 0.858824 0 0 0 0 0.192157 0 0 0 0 0.447059 0 0 0 1 0"/>
<feBlend mode="normal" in2="BackgroundImageFix" result="effect1_dropShadow_81_5"/>
<feBlend mode="normal" in="SourceGraphic" in2="effect1_dropShadow_81_5" result="shape"/>
</filter>
</defs>
</svg>
