<svg width="113" height="18" viewBox="0 0 113 18" fill="none" xmlns="http://www.w3.org/2000/svg">
<rect x="57" y="0.519165" width="27.2947" height="17.4686" rx="6" fill="#D8E3F3"/>
<g clip-path="url(#clip0_142_142)">
<path d="M69.5331 13.4037H67.751L68.8657 5.65953H70.6477L69.5331 13.4037Z" fill="#00579F"/>
<path d="M75.9939 5.84885C75.6424 5.69216 75.0849 5.51915 74.3955 5.51915C72.6355 5.51915 71.3962 6.57363 71.3886 8.08121C71.374 9.1935 72.2759 9.81129 72.9505 10.1822C73.64 10.5611 73.8744 10.8085 73.8744 11.1463C73.8674 11.6651 73.3172 11.9043 72.8041 11.9043C72.0926 11.9043 71.7114 11.781 71.132 11.4923L70.8973 11.3686L70.6479 13.107C71.0659 13.321 71.836 13.5108 72.6355 13.5192C74.5055 13.5192 75.7229 12.481 75.7373 10.8744C75.7444 9.99284 75.2682 9.31734 74.2414 8.76536C73.6181 8.41102 73.2363 8.17209 73.2363 7.80954C73.2437 7.47995 73.5592 7.14236 74.2628 7.14236C74.8422 7.12583 75.2679 7.2823 75.5904 7.43889L75.7516 7.52112L75.9939 5.84885V5.84885Z" fill="#00579F"/>
<path d="M78.3623 10.6602C78.509 10.2153 79.0738 8.49348 79.0738 8.49348C79.0664 8.51001 79.2203 8.04037 79.3083 7.75206L79.4328 8.41935C79.4328 8.41935 79.7703 10.2731 79.8436 10.6602C79.5651 10.6602 78.7143 10.6602 78.3623 10.6602ZM80.5621 5.65953H79.1836C78.7585 5.65953 78.4356 5.79947 78.2521 6.30207L75.605 13.4036H77.4749C77.4749 13.4036 77.7828 12.4478 77.849 12.242C78.0541 12.242 79.8732 12.242 80.1371 12.242C80.1883 12.5138 80.3498 13.4036 80.3498 13.4036H81.9999L80.5621 5.65953V5.65953Z" fill="#00579F"/>
<path d="M66.2628 5.65953L64.5175 10.9403L64.3267 9.86933C64.0041 8.63353 62.9921 7.29085 61.8628 6.62323L63.4614 13.3955H65.346L68.1473 5.65953H66.2628V5.65953Z" fill="#00579F"/>
<path d="M62.8966 5.65953H60.0293L60 5.816C62.2367 6.45865 63.718 8.00774 64.3266 9.86966L63.7033 6.3105C63.6007 5.8159 63.2853 5.67585 62.8966 5.65953Z" fill="#FAA61A"/>
</g>
<rect x="28" y="0.204559" width="26.2029" height="17.4686" rx="6" fill="#FDEACE"/>
<circle cx="36.5" cy="8.70456" r="6.5" fill="#EB001B"/>
<circle cx="45.5" cy="8.70456" r="6.5" fill="#F79E1B"/>
<path fill-rule="evenodd" clip-rule="evenodd" d="M41 13.395C42.2327 12.2121 43 10.5479 43 8.70456C43 6.8612 42.2327 5.19706 41 4.01413C39.7673 5.19706 39 6.8612 39 8.70456C39 10.5479 39.7673 12.2121 41 13.395Z" fill="#FF5F00"/>
<rect x="86" y="0.0122223" width="26.7488" height="17.4686" rx="6" fill="#DCEFDC"/>
<g clip-path="url(#clip1_142_142)">
<path fill-rule="evenodd" clip-rule="evenodd" d="M90.1309 5.87998C90.3353 5.87873 90.9428 5.82261 91.2001 6.71333C91.3735 7.31333 91.6496 8.29616 92.0285 9.66182H92.1828C92.5891 8.22205 92.8682 7.23922 93.0201 6.71333C93.2801 5.81333 93.9301 5.88 94.1901 5.88L96.1961 5.88V12.28H94.1516V8.50837H94.0145L92.8747 12.28H91.3365L90.1968 8.50558H90.0597V12.28H88.0151V5.88L90.1309 5.87998ZM99.132 5.88V9.65443H99.2951L100.681 6.55075C100.951 5.9331 101.524 5.88 101.524 5.88H103.503V12.28H101.415V8.50558H101.252L99.8931 11.6093C99.624 12.2241 99.0233 12.28 99.0233 12.28H97.0448V5.88H99.132ZM110.717 8.92132C110.426 9.76752 109.512 10.3735 108.499 10.3735H106.31V12.28H104.326V8.92132H110.717Z" fill="#57B058"/>
<path fill-rule="evenodd" clip-rule="evenodd" d="M108.595 5.88H104.222C104.326 7.30486 105.522 8.52463 106.761 8.52463H110.855C111.091 7.34041 110.278 5.88 108.595 5.88Z" fill="url(#paint0_linear_142_142)"/>
</g>
<rect y="0.0366821" width="26.2029" height="17.4686" rx="6" fill="#CCEFFF"/>
<circle cx="8.5" cy="8.53668" r="6.5" fill="#EB001B"/>
<circle cx="17.5" cy="8.53668" r="6.5" fill="#0099DF"/>
<path fill-rule="evenodd" clip-rule="evenodd" d="M13 13.2271C14.2327 12.0442 15 10.38 15 8.53668C15 6.69332 14.2327 5.02918 13 3.84625C11.7673 5.02918 11 6.69332 11 8.53668C11 10.38 11.7673 12.0442 13 13.2271Z" fill="#6C6BBD"/>
<defs>
<linearGradient id="paint0_linear_142_142" x1="110.895" y1="7.54359" x2="104.222" y2="7.54359" gradientUnits="userSpaceOnUse">
<stop stop-color="#1F5CD7"/>
<stop offset="1" stop-color="#02AEFF"/>
</linearGradient>
<clipPath id="clip0_142_142">
<rect width="22" height="8" fill="white" transform="translate(60 5.51917)"/>
</clipPath>
<clipPath id="clip1_142_142">
<rect width="26" height="8" fill="white" transform="translate(86 5.01222)"/>
</clipPath>
</defs>
</svg>
