<svg width="27" height="27" viewBox="0 0 27 27" fill="none" xmlns="http://www.w3.org/2000/svg">
<g clip-path="url(#clip0_72_2)">
<path d="M14.1724 7.65345C15.7924 7.65345 17.1052 8.96621 17.1052 10.5862C17.1052 12.2062 15.7924 13.519 14.1724 13.519C12.5524 13.519 11.2397 12.2062 11.2397 10.5862C11.2397 8.96621 12.5524 7.65345 14.1724 7.65345ZM14.1724 20.2224C18.3202 20.2224 22.6914 22.2614 22.6914 23.1552V24.6914H5.65345V23.1552C5.65345 22.2614 10.0247 20.2224 14.1724 20.2224ZM14.1724 5C11.086 5 8.58621 7.49983 8.58621 10.5862C8.58621 13.6726 11.086 16.1724 14.1724 16.1724C17.2588 16.1724 19.7586 13.6726 19.7586 10.5862C19.7586 7.49983 17.2588 5 14.1724 5ZM14.1724 17.569C10.4436 17.569 3 19.4403 3 23.1552V25.9483C3 26.7164 3.62845 27.3448 4.39655 27.3448H23.9483C24.7164 27.3448 25.3448 26.7164 25.3448 25.9483V23.1552C25.3448 19.4403 17.9012 17.569 14.1724 17.569Z" fill="#DB3172"/>
</g>
<defs>
<clipPath id="clip0_72_2">
<rect width="27" height="27" fill="white"/>
</clipPath>
</defs>
</svg>
